# xmcd CD database file
#
# Track frame offsets:
#	182
#	15462
#	32872
#	48672
#	60920
#	72550
#	89175
#	104072
#	118347
#	130007
#	145690
#	159262
#	169497
#	181750
#	197162
#
# Disc length: 2867 seconds
#
# Revision: 0
# Processed by: cddbd v1.5.1PL0 Copyright (c) Steve Scherf et al.
# Submitted via: CDex 1.51
#
DISCID=db0b310f
DTITLE=Diversos - Limpa Banco - Volume 1
DYEAR=1900
DGENRE=Country
TTITLE0=Baila, baila morena - Os Nativos
TTITLE1=Cobra Sucuri - Os Mirins
TTITLE2=Rancheira animada - Grupo Soledade
TTITLE3=Me diga tchê - Grupo Renascença
TTITLE4=Gineteada - Porca Véia
TTITLE5=Vaneirinha das prendas - Tchê Guri
TTITLE6=Milonga morena - Os Mateadores
TTITLE7=Bailantas da vida - Grupo Chamamento
TTITLE8=No galope da vanera - Grupo Rodeiro
TTITLE9=Bole Bole - Gaudérios do Vale
TTITLE10=Surungo e cangebrina - Os Buenachos
TTITLE11=Bem a moda antiga - Grupo Manotaço
TTITLE12=Chica Rufina - Grupo Guaiacanan
TTITLE13=Negrinha - Odilon Ramos e Grupo Pampa e Guitarra
TTITLE14=Festança do bugio - Grupo Candeeiro
EXTD=
EXTT0=
EXTT1=
EXTT2=
EXTT3=
EXTT4=
EXTT5=
EXTT6=
EXTT7=
EXTT8=
EXTT9=
EXTT10=
EXTT11=
EXTT12=
EXTT13=
EXTT14=
PLAYORDER=
